<svg viewBox="0 0 660 300" width="660" xmlns="http://www.w3.org/2000/svg" role="img" aria-label="Two inactive T lymphocytes proliferating and differentiating in the presence of antigen">
<rect width="660" height="300" fill="#fff"/>
<defs><marker id="c1" markerWidth="9" markerHeight="9" refX="7" refY="4" orient="auto"><path d="M0 0 L8 4 L0 8 z" fill="#16181d"/></marker></defs>
<text class="lbl" x="330" y="24" text-anchor="middle">antigen from a virus present</text>
<g class="tick"><text x="88" y="46" text-anchor="middle">1</text><text x="268" y="46" text-anchor="middle">2</text>
 <text x="446" y="46" text-anchor="middle">3</text><text x="596" y="46" text-anchor="middle">4</text></g>
<!-- row U -->
<g transform="translate(0,110)">
 <circle cx="88" r="26" fill="#fff" stroke="#16181d" stroke-width="2"/><circle cx="88" r="11" fill="#16181d"/>
 <text class="lbl-b" x="88" y="46" text-anchor="middle">U1</text>
 <circle cx="252" cy="-16" r="20" fill="#fff" stroke="#16181d" stroke-width="1.8"/><circle cx="252" cy="-16" r="8" fill="#16181d"/>
 <circle cx="286" cy="18" r="20" fill="#fff" stroke="#16181d" stroke-width="1.8"/><circle cx="286" cy="18" r="8" fill="#16181d"/>
 <text class="lbl" x="268" y="52" text-anchor="middle">proliferation</text>
 <circle cx="430" cy="-16" r="20" fill="#fff" stroke="#16181d" stroke-width="1.8"/><circle cx="430" cy="-16" r="8" fill="#16181d"/>
 <circle cx="464" cy="18" r="20" fill="#fff" stroke="#16181d" stroke-width="1.8"/><circle cx="464" cy="18" r="8" fill="#16181d"/>
 <text class="lbl" x="446" y="52" text-anchor="middle">differentiation</text>
 <circle cx="596" r="30" fill="#dfe6ee" stroke="#16181d" stroke-width="2.2"/><circle cx="596" r="12" fill="#16181d"/>
 <text class="lbl-b" x="596" y="50" text-anchor="middle">U4</text>
 <path d="M120 0 L212 0 M312 0 L392 0 M496 0 L560 0" fill="none" stroke="#16181d" stroke-width="1.8" marker-end="url(#c1)"/>
</g>
<!-- row V -->
<g transform="translate(0,226)">
 <circle cx="88" r="26" fill="#fff" stroke="#16181d" stroke-width="2" stroke-dasharray="5 3"/><circle cx="88" r="11" fill="#5b6472"/>
 <text class="lbl-b" x="88" y="46" text-anchor="middle">V1</text>
 <circle cx="252" cy="-16" r="20" fill="#fff" stroke="#16181d" stroke-width="1.8" stroke-dasharray="5 3"/><circle cx="252" cy="-16" r="8" fill="#5b6472"/>
 <circle cx="286" cy="18" r="20" fill="#fff" stroke="#16181d" stroke-width="1.8" stroke-dasharray="5 3"/><circle cx="286" cy="18" r="8" fill="#5b6472"/>
 <circle cx="430" cy="-16" r="20" fill="#fff" stroke="#16181d" stroke-width="1.8" stroke-dasharray="5 3"/><circle cx="430" cy="-16" r="8" fill="#5b6472"/>
 <circle cx="464" cy="18" r="20" fill="#fff" stroke="#16181d" stroke-width="1.8" stroke-dasharray="5 3"/><circle cx="464" cy="18" r="8" fill="#5b6472"/>
 <circle cx="596" r="30" fill="#eef2f6" stroke="#16181d" stroke-width="2.2" stroke-dasharray="5 3"/><circle cx="596" r="12" fill="#5b6472"/>
 <text class="lbl-b" x="596" y="50" text-anchor="middle">V4</text>
 <path d="M120 0 L212 0 M312 0 L392 0 M496 0 L560 0" fill="none" stroke="#16181d" stroke-width="1.8" marker-end="url(#c1)"/>
</g>
<text class="tick" x="20" y="116">inactive</text><text class="tick" x="20" y="232">inactive</text>
</svg>
