<svg viewBox="0 0 660 330" width="660" xmlns="http://www.w3.org/2000/svg" role="img" aria-label="Levels of IgM, IgA and IgG antibody against time after infection">
<rect width="660" height="330" fill="#fff"/>
<line x1="78.0" y1="40" x2="78.0" y2="268" stroke="#eef0f3" stroke-width="1"/>
<text class="tick" x="78.0" y="284" text-anchor="middle">0</text>
<line x1="163.3" y1="40" x2="163.3" y2="268" stroke="#eef0f3" stroke-width="1"/>
<text class="tick" x="163.3" y="284" text-anchor="middle">2</text>
<line x1="248.7" y1="40" x2="248.7" y2="268" stroke="#eef0f3" stroke-width="1"/>
<text class="tick" x="248.7" y="284" text-anchor="middle">4</text>
<line x1="334.0" y1="40" x2="334.0" y2="268" stroke="#eef0f3" stroke-width="1"/>
<text class="tick" x="334.0" y="284" text-anchor="middle">6</text>
<line x1="419.3" y1="40" x2="419.3" y2="268" stroke="#eef0f3" stroke-width="1"/>
<text class="tick" x="419.3" y="284" text-anchor="middle">8</text>
<line x1="504.7" y1="40" x2="504.7" y2="268" stroke="#eef0f3" stroke-width="1"/>
<text class="tick" x="504.7" y="284" text-anchor="middle">10</text>
<line x1="590.0" y1="40" x2="590.0" y2="268" stroke="#eef0f3" stroke-width="1"/>
<text class="tick" x="590.0" y="284" text-anchor="middle">12</text>
<line x1="78" y1="268.0" x2="590" y2="268.0" stroke="#eef0f3" stroke-width="1"/>
<line x1="78" y1="211.0" x2="590" y2="211.0" stroke="#eef0f3" stroke-width="1"/>
<line x1="78" y1="154.0" x2="590" y2="154.0" stroke="#eef0f3" stroke-width="1"/>
<line x1="78" y1="97.0" x2="590" y2="97.0" stroke="#eef0f3" stroke-width="1"/>
<line x1="78" y1="40.0" x2="590" y2="40.0" stroke="#eef0f3" stroke-width="1"/>
<path class="ax" d="M78 40 L78 268 L590 268"/>
<path d="M78.0 268.0 L90.8 254.3 L103.6 208.7 L120.7 126.6 L137.7 76.5 L154.8 103.8 L180.4 163.1 L214.5 213.3 L257.2 240.6 L334.0 254.3 L462.0 261.2 L590.0 263.4" fill="none" stroke="#16181d" stroke-width="2.4"/>
<path d="M78.0 268.0 L95.1 256.6 L116.4 222.4 L142.0 181.4 L167.6 195.0 L206.0 222.4 L257.2 240.6 L334.0 249.8 L462.0 254.3 L590.0 256.6" fill="none" stroke="#16181d" stroke-width="2" stroke-dasharray="7 4"/>
<path d="M78.0 268.0 L103.6 261.2 L129.2 236.1 L163.3 176.8 L206.0 117.5 L248.7 85.6 L291.3 71.9 L355.3 67.4 L419.3 67.4 L504.7 69.6 L590.0 71.9" fill="none" stroke="#16181d" stroke-width="2" stroke-dasharray="2 3"/>
<text class="lbl" transform="translate(26,154.0) rotate(-90)" text-anchor="middle">level of antibody / arbitrary units</text>
<text class="lbl" x="334.0" y="308" text-anchor="middle">time after infection / months</text>
<line x1="424" y1="72" x2="466" y2="72" stroke="#16181d" stroke-width="2.4"/><text class="lbl" x="474" y="76">IgM</text>
<line x1="424" y1="94" x2="466" y2="94" stroke="#16181d" stroke-width="2" stroke-dasharray="7 4"/><text class="lbl" x="474" y="98">IgA</text>
<line x1="424" y1="116" x2="466" y2="116" stroke="#16181d" stroke-width="2" stroke-dasharray="2 3"/><text class="lbl" x="474" y="120">IgG</text>
</svg>